<?xml version="1.0" standalone="no"?>
<!DOCTYPE svg PUBLIC "-//W3C//DTD SVG 20010904//EN"
 "http://www.w3.org/TR/2001/REC-SVG-20010904/DTD/svg10.dtd">
<svg version="1.0" xmlns="http://www.w3.org/2000/svg"
 width="300.000000pt" height="300.000000pt" viewBox="0 0 300.000000 300.000000"
 preserveAspectRatio="xMidYMid meet">
<metadata>
Created by potrace 1.11, written by Peter Selinger 2001-2013
</metadata>
<g transform="translate(0.000000,300.000000) scale(0.100000,-0.100000)"
fill="#000000" stroke="none">
<path d="M1366 2749 c-419 -45 -788 -298 -983 -675 -244 -472 -156 -1062 214
-1440 251 -257 576 -390 928 -379 66 2 136 6 155 9 19 3 49 8 67 11 59 9 227
67 298 103 372 187 631 539 691 943 15 97 9 327 -10 419 -82 397 -322 709
-680 885 -213 105 -450 148 -680 124z m329 -154 c117 -21 337 -106 386 -151 8
-8 19 -14 23 -14 31 0 213 -173 286 -270 323 -432 277 -1050 -106 -1435 -283
-284 -675 -393 -1067 -294 -77 19 -101 28 -207 77 -109 50 -244 151 -336 252
-143 158 -237 354 -273 573 -12 68 -15 251 -6 297 2 14 7 41 9 61 20 157 110
358 225 501 256 321 663 475 1066 403z"/>
</g>
</svg>
