<?xml version="1.0" encoding="utf-8"?>
<!-- Generator: Adobe Illustrator 16.0.0, SVG Export Plug-In . SVG Version: 6.00 Build 0)  -->
<!DOCTYPE svg PUBLIC "-//W3C//DTD SVG 1.1//EN" "http://www.w3.org/Graphics/SVG/1.1/DTD/svg11.dtd">
<svg version="1.1" id="Layer_1" xmlns="http://www.w3.org/2000/svg" xmlns:xlink="http://www.w3.org/1999/xlink" x="0px" y="0px"
	 width="1920px" height="1080px" viewBox="0 0 1920 1080" enable-background="new 0 0 1920 1080" xml:space="preserve">
<rect fill="#F9EBCB" width="1920" height="1080"/>
<g>
	<line stroke="#322F29" stroke-width="18" stroke-linecap="round" stroke-miterlimit="10" x1="1796" y1="211" x2="158" y2="211"/>
	<g>
		<path fill="#F9EBCB" d="M158.311,228.378c-9.568,0-17.353-7.785-17.353-17.353c0-9.568,7.784-17.352,17.353-17.352
			s17.353,7.784,17.353,17.352C175.664,220.593,167.879,228.378,158.311,228.378z"/>
		<path fill="#322F29" d="M158.311,198.673c6.812,0,12.353,5.541,12.353,12.352c0,6.812-5.542,12.353-12.353,12.353
			c-6.811,0-12.353-5.542-12.353-12.353C145.958,204.214,151.5,198.673,158.311,198.673 M158.311,188.673
			c-12.346,0-22.353,10.007-22.353,22.352c0,12.346,10.007,22.353,22.353,22.353s22.353-10.007,22.353-22.353
			C180.664,198.68,170.656,188.673,158.311,188.673L158.311,188.673z"/>
	</g>
</g>
<g>
	<circle fill="#AFA58E" stroke="#AFA58E" stroke-miterlimit="10" cx="113.212" cy="162.986" r="12.858"/>
	<circle fill="#AFA58E" stroke="#AFA58E" stroke-miterlimit="10" cx="360.069" cy="162.986" r="12.858"/>
	<line fill="#AFA58E" stroke="#AFA58E" stroke-width="10" stroke-miterlimit="10" x1="360" y1="163" x2="113" y2="163"/>
</g>
<g>
	<circle fill="#AFA58E" stroke="#AFA58E" stroke-miterlimit="10" cx="360.069" cy="258.107" r="12.858"/>
	<circle fill="#AFA58E" stroke="#AFA58E" stroke-miterlimit="10" cx="158.311" cy="258.107" r="12.858"/>
	<line fill="#AFA58E" stroke="#AFA58E" stroke-width="10" stroke-miterlimit="10" x1="360" y1="258" x2="158" y2="258"/>
</g>
<g>
	<circle fill="#AFA58E" stroke="#AFA58E" stroke-miterlimit="10" cx="158.311" cy="296.261" r="12.858"/>
	<circle fill="#AFA58E" stroke="#AFA58E" stroke-miterlimit="10" cx="360.069" cy="296.261" r="12.858"/>
	<line fill="#AFA58E" stroke="#AFA58E" stroke-width="10" stroke-miterlimit="10" x1="360" y1="296" x2="158" y2="296"/>
</g>
<g>
	<circle fill="#AFA58E" stroke="#AFA58E" stroke-miterlimit="10" cx="563.014" cy="334.415" r="12.858"/>
	
		<line fill="#AFA58E" stroke="#AFA58E" stroke-width="10" stroke-linecap="round" stroke-miterlimit="10" x1="1791" y1="335" x2="563" y2="335"/>
</g>
<g>
	<circle fill="#AFA58E" stroke="#AFA58E" stroke-miterlimit="10" cx="563.014" cy="372.568" r="12.858"/>
	
		<line fill="#AFA58E" stroke="#AFA58E" stroke-width="10" stroke-linecap="round" stroke-miterlimit="10" x1="1791" y1="373" x2="563" y2="373"/>
</g>
<g>
	<circle fill="#AFA58E" stroke="#AFA58E" stroke-miterlimit="10" cx="765.96" cy="410.723" r="12.858"/>
	
		<line fill="#AFA58E" stroke="#AFA58E" stroke-width="10" stroke-linecap="round" stroke-miterlimit="10" x1="1791" y1="411" x2="766" y2="411"/>
</g>
<g>
	<circle fill="#AFA58E" stroke="#AFA58E" stroke-miterlimit="10" cx="967.719" cy="448.876" r="12.859"/>
	<circle fill="#AFA58E" stroke="#AFA58E" stroke-miterlimit="10" cx="1379.543" cy="448.876" r="12.858"/>
	<line fill="#AFA58E" stroke="#AFA58E" stroke-width="10" stroke-miterlimit="10" x1="1379" y1="449" x2="968" y2="449"/>
</g>
<g>
	<circle fill="#AFA58E" stroke="#AFA58E" stroke-miterlimit="10" cx="1176.598" cy="487.03" r="12.858"/>
	
		<line fill="#AFA58E" stroke="#AFA58E" stroke-width="10" stroke-linecap="round" stroke-miterlimit="10" x1="1791" y1="487" x2="1175" y2="487"/>
</g>
<g>
	<circle fill="#AFA58E" stroke="#AFA58E" stroke-miterlimit="10" cx="1378.356" cy="525.185" r="12.858"/>
	
		<line fill="#AFA58E" stroke="#AFA58E" stroke-width="10" stroke-linecap="round" stroke-miterlimit="10" x1="1792" y1="526" x2="1380" y2="526"/>
</g>
<g>
	<circle fill="#AFA58E" stroke="#AFA58E" stroke-miterlimit="10" cx="1379.543" cy="563.338" r="12.858"/>
	
		<line fill="#AFA58E" stroke="#AFA58E" stroke-width="10" stroke-linecap="round" stroke-miterlimit="10" x1="1791" y1="564" x2="1382" y2="564"/>
</g>
<g>
	<path fill="#322F29" d="M338.237,930v-53.633l-23.827,41.489h-3.772l-23.918-41.489V930h-6.348v-65.316h6.531l25.575,44.71
		l25.575-44.71h6.532V930H338.237z"/>
	<path fill="#322F29" d="M356.456,905.897c0-13.432,10.12-24.655,24.011-24.655c13.983,0,23.643,11.408,23.735,24.563
		c0,0.92-0.092,2.115-0.184,2.483h-40.938c0.736,10.304,8.463,17.847,17.663,17.847c6.348,0,12.511-3.495,14.719-8.647l5.428,1.473
		c-2.944,6.991-11.131,11.959-20.331,11.959C366.575,930.92,356.456,919.513,356.456,905.897z M398.221,903.505
		c-0.828-10.211-8.372-17.387-17.755-17.387c-9.384,0-16.927,7.268-17.571,17.387H398.221z"/>
	<path fill="#322F29" d="M484.882,930h-6.255v-26.771c0-11.132-3.496-16.283-10.58-16.283c-7.268,0-13.431,5.704-15.731,13.799V930
		h-6.256v-26.771c0-11.315-3.404-16.283-10.487-16.283c-7.176,0-13.339,5.52-15.731,13.707V930h-6.255v-47.93h5.704v10.855
		c3.956-7.359,10.58-11.684,18.307-11.684c8.003,0,13.155,5.061,14.167,12.328c4.416-8.096,10.671-12.328,18.583-12.328
		c10.671,0,14.535,8.188,14.535,20.699V930z"/>
	<path fill="#322F29" d="M503.468,920.708V930h-5.611v-67.156h6.255v29.254c4.324-6.439,10.304-10.855,18.307-10.855
		c13.339,0,21.711,12.42,21.711,24.931c0,13.432-9.936,24.747-22.815,24.747C513.864,930.92,507.056,926.688,503.468,920.708z
		 M537.691,906.173c0-10.027-6.992-19.41-17.02-19.41c-7.543,0-13.523,5.52-16.559,11.959v14.903
		c1.012,6.623,9.476,11.775,15.731,11.775C530.331,925.4,537.691,916.017,537.691,906.173z"/>
	<path fill="#322F29" d="M551.401,905.897c0-13.432,10.12-24.655,24.011-24.655c13.983,0,23.643,11.408,23.735,24.563
		c0,0.92-0.092,2.115-0.184,2.483h-40.938c0.736,10.304,8.463,17.847,17.663,17.847c6.348,0,12.511-3.495,14.719-8.647l5.428,1.473
		c-2.944,6.991-11.131,11.959-20.331,11.959C561.521,930.92,551.401,919.513,551.401,905.897z M593.167,903.505
		c-0.828-10.211-8.372-17.387-17.755-17.387c-9.384,0-16.927,7.268-17.571,17.387H593.167z"/>
	<path fill="#322F29" d="M632.45,887.59c-8.372,0.276-15.087,4.876-17.663,12.604V930h-6.255v-47.93h5.888v11.5
		c3.312-6.716,9.107-11.775,15.271-11.775c1.104,0,2.116,0,2.76,0.092V887.59z"/>
	<path fill="#322F29" d="M636.317,923.744l2.852-4.231c5.336,4.416,10.855,6.623,17.203,6.623c7.636,0,12.695-3.312,12.695-9.015
		c0-5.336-4.784-6.808-14.443-9.108c-11.132-2.76-16.099-4.691-16.099-12.235c0-9.659,8.095-14.535,17.939-14.535
		c7.359,0,13.615,2.668,17.295,6.532l-3.036,3.68c-3.588-3.68-9.016-5.52-14.443-5.52c-6.532,0-11.775,2.668-11.775,8.923
		c0,5.061,3.404,6.164,11.959,8.188c12.327,2.944,18.675,5.336,18.675,13.523c0,8.74-7.359,14.352-18.675,14.352
		C649.012,930.92,641.469,928.437,636.317,923.744z"/>
	<path fill="#322F29" d="M705.592,906.173c0-13.431,10.12-24.931,23.827-24.931c13.708,0,23.827,11.5,23.827,24.931
		c0,13.34-10.027,24.747-23.827,24.747C715.436,930.92,705.592,919.513,705.592,906.173z M729.327,925.4
		c9.567,0,17.479-8.647,17.479-19.319c0-10.671-7.912-19.318-17.387-19.318c-9.567,0-17.387,8.739-17.387,19.503
		C712.032,916.937,719.759,925.4,729.327,925.4z"/>
	<path fill="#322F29" d="M765.667,930v-37.35h-6.624v-4.968h6.624v-6.9c0-11.683,5.428-18.858,14.167-18.858
		c3.68,0,7.451,1.195,10.027,3.035l-1.932,4.508c-1.656-1.288-4.416-2.115-6.899-2.115c-5.888,0-9.107,4.691-9.107,13.247v7.084
		h13.247v4.968h-13.247V930H765.667z"/>
	<path fill="#322F29" d="M862.356,870.387h-23.275V930h-6.44v-59.613h-23.274v-5.703h52.989V870.387z"/>
	<path fill="#322F29" d="M867.694,905.897c0-13.432,10.12-24.655,24.011-24.655c13.983,0,23.643,11.408,23.735,24.563
		c0,0.92-0.092,2.115-0.184,2.483h-40.938c0.736,10.304,8.463,17.847,17.663,17.847c6.348,0,12.511-3.495,14.719-8.647l5.428,1.473
		c-2.944,6.991-11.131,11.959-20.331,11.959C877.814,930.92,867.694,919.513,867.694,905.897z M909.46,903.505
		c-0.828-10.211-8.372-17.387-17.755-17.387c-9.384,0-16.927,7.268-17.571,17.387H909.46z"/>
	<path fill="#322F29" d="M921.053,916.293c0-8.924,8.28-14.72,20.239-14.72c4.784,0,10.12,0.92,14.076,2.484v-4.324
		c0-8.464-5.244-13.799-13.432-13.799c-5.06,0-10.211,2.023-15.455,5.703l-2.208-4.14c6.164-4.14,11.959-6.256,18.307-6.256
		c11.591,0,19.043,7.176,19.043,19.043v21.619c0,1.748,0.645,2.576,2.208,2.576V930c-1.013,0.092-1.84,0.184-2.483,0.184
		c-2.484,0-4.876-1.472-5.06-4.415l-0.184-3.772c-4.14,5.612-11.684,8.924-18.583,8.924
		C927.677,930.92,921.053,924.204,921.053,916.293z M953.804,919.421c0.828-1.104,1.564-2.484,1.564-3.588v-7.82
		c-4.14-1.563-8.832-2.483-13.156-2.483c-8.923,0-15.087,3.864-15.087,10.212c0,5.06,3.956,10.395,11.959,10.395
		C944.604,926.136,950.676,923.561,953.804,919.421z"/>
	<path fill="#322F29" d="M1046.537,930h-6.256v-26.771c0-11.132-3.496-16.283-10.58-16.283c-7.268,0-13.432,5.704-15.73,13.799V930
		h-6.256v-26.771c0-11.315-3.404-16.283-10.488-16.283c-7.176,0-13.339,5.52-15.73,13.707V930h-6.256v-47.93h5.703v10.855
		c3.956-7.359,10.58-11.684,18.308-11.684c8.003,0,13.155,5.061,14.167,12.328c4.416-8.096,10.672-12.328,18.583-12.328
		c10.671,0,14.536,8.188,14.536,20.699V930z"/>
	<path fill="#322F29" d="M1128.602,870.387h-23.275V930h-6.439v-59.613h-23.275v-5.703h52.99V870.387z"/>
	<path fill="#322F29" d="M1124.279,906.173c0-13.431,10.12-24.931,23.827-24.931c13.708,0,23.827,11.5,23.827,24.931
		c0,13.34-10.027,24.747-23.827,24.747C1134.123,930.92,1124.279,919.513,1124.279,906.173z M1148.015,925.4
		c9.567,0,17.479-8.647,17.479-19.319c0-10.671-7.912-19.318-17.388-19.318c-9.567,0-17.388,8.739-17.388,19.503
		C1130.719,916.937,1138.447,925.4,1148.015,925.4z"/>
	<path fill="#322F29" d="M1206.064,887.59c-8.371,0.276-15.086,4.876-17.662,12.604V930h-6.256v-47.93h5.888v11.5
		c3.312-6.716,9.107-11.775,15.271-11.775c1.104,0,2.116,0,2.76,0.092V887.59z"/>
	<path fill="#322F29" d="M1214.438,872.043v-9.199h6.256v9.199H1214.438z M1214.438,930v-47.93h6.256V930H1214.438z"/>
	<path fill="#322F29" d="M1255.101,897.342c0-17.388,13.247-33.118,30.727-33.118c18.215,0,30.542,16.835,30.542,33.21
		c0,17.387-13.154,33.026-30.634,33.026C1267.52,930.46,1255.101,914.085,1255.101,897.342z M1285.735,924.664
		c14.812,0,24.194-13.891,24.194-27.322c0-14.167-10.027-27.23-24.194-27.23c-14.812,0-24.194,13.707-24.194,27.23
		C1261.541,911.509,1271.384,924.664,1285.735,924.664z"/>
	<path fill="#322F29" d="M1341.58,930l-19.504-47.93h6.532l16.467,42.134l16.56-42.134h6.071L1348.203,930H1341.58z"/>
	<path fill="#322F29" d="M1372.86,905.897c0-13.432,10.12-24.655,24.011-24.655c13.983,0,23.643,11.408,23.734,24.563
		c0,0.92-0.092,2.115-0.184,2.483h-40.938c0.735,10.304,8.463,17.847,17.662,17.847c6.348,0,12.512-3.495,14.72-8.647l5.428,1.473
		c-2.944,6.991-11.132,11.959-20.331,11.959C1382.98,930.92,1372.86,919.513,1372.86,905.897z M1414.626,903.505
		c-0.827-10.211-8.372-17.387-17.755-17.387c-9.384,0-16.928,7.268-17.571,17.387H1414.626z"/>
	<path fill="#322F29" d="M1453.91,887.59c-8.371,0.276-15.087,4.876-17.663,12.604V930h-6.255v-47.93h5.887v11.5
		c3.313-6.716,9.107-11.775,15.271-11.775c1.104,0,2.115,0,2.76,0.092V887.59z"/>
	<path fill="#322F29" d="M1529.35,870.387h-23.275V930h-6.439v-59.613h-23.273v-5.703h52.988V870.387z"/>
	<path fill="#322F29" d="M1537.816,872.043v-9.199h6.256v9.199H1537.816z M1537.816,930v-47.93h6.256V930H1537.816z"/>
	<path fill="#322F29" d="M1628.799,930h-6.256v-26.771c0-11.132-3.494-16.283-10.578-16.283c-7.268,0-13.432,5.704-15.732,13.799
		V930h-6.254v-26.771c0-11.315-3.404-16.283-10.488-16.283c-7.176,0-13.34,5.52-15.73,13.707V930h-6.256v-47.93h5.703v10.855
		c3.955-7.359,10.58-11.684,18.307-11.684c8.004,0,13.156,5.061,14.168,12.328c4.416-8.096,10.672-12.328,18.582-12.328
		c10.672,0,14.535,8.188,14.535,20.699V930z"/>
	<path fill="#322F29" d="M1638.646,905.897c0-13.432,10.119-24.655,24.01-24.655c13.984,0,23.643,11.408,23.734,24.563
		c0,0.92-0.092,2.115-0.184,2.483h-40.938c0.736,10.304,8.463,17.847,17.664,17.847c6.348,0,12.51-3.495,14.719-8.647l5.428,1.473
		c-2.943,6.991-11.133,11.959-20.332,11.959C1648.766,930.92,1638.646,919.513,1638.646,905.897z M1680.412,903.505
		c-0.828-10.211-8.371-17.387-17.756-17.387c-9.383,0-16.926,7.268-17.57,17.387H1680.412z"/>
</g>
</svg>
